<svg xmlns="http://www.w3.org/2000/svg" xmlns:xlink="http://www.w3.org/1999/xlink" viewBox="0 0 700 700"><defs><style>.cls-1{isolation:isolate;}.cls-2{fill:url(#radial-gradient);}.cls-10,.cls-11,.cls-12,.cls-3,.cls-4,.cls-6,.cls-7{opacity:0.3;}.cls-10,.cls-11,.cls-12,.cls-3,.cls-4,.cls-5,.cls-6,.cls-7,.cls-8{mix-blend-mode:multiply;}.cls-3{fill:url(#linear-gradient);}.cls-4{fill:url(#linear-gradient-2);}.cls-5{fill:url(#linear-gradient-3);}.cls-6{fill:url(#linear-gradient-4);}.cls-7{fill:url(#linear-gradient-5);}.cls-8{opacity:0.5;}.cls-9{fill:url(#linear-gradient-6);}.cls-10{fill:url(#linear-gradient-7);}.cls-11{fill:url(#linear-gradient-8);}.cls-12{fill:url(#linear-gradient-9);}</style><radialGradient id="radial-gradient" cx="626.03" cy="146.87" r="699.07" gradientUnits="userSpaceOnUse"><stop offset="0" stop-color="#c9ec7d"/><stop offset="0.27" stop-color="#89d600"/><stop offset="1" stop-color="#3a9b20"/></radialGradient><linearGradient id="linear-gradient" x1="51.67" y1="523.92" x2="113.34" y2="478.63" gradientUnits="userSpaceOnUse"><stop offset="0.16" stop-color="#3a9b20"/><stop offset="0.68" stop-color="#3a9b20" stop-opacity="0"/></linearGradient><linearGradient id="linear-gradient-2" x1="130.63" y1="420.22" x2="171.1" y2="389.38" gradientUnits="userSpaceOnUse"><stop offset="0.21" stop-color="#3a9b20"/><stop offset="0.43" stop-color="#3a9b20" stop-opacity="0.67"/><stop offset="0.7" stop-color="#3a9b20" stop-opacity="0.31"/><stop offset="0.89" stop-color="#3a9b20" stop-opacity="0.09"/><stop offset="1" stop-color="#3a9b20" stop-opacity="0"/></linearGradient><linearGradient id="linear-gradient-3" x1="298.5" y1="379.09" x2="298.91" y2="378.77" xlink:href="#linear-gradient-2"/><linearGradient id="linear-gradient-4" x1="564.33" y1="499.49" x2="622.14" y2="614.16" gradientUnits="userSpaceOnUse"><stop offset="0.18" stop-color="#3a9b20"/><stop offset="0.22" stop-color="#3a9b20" stop-opacity="0.93"/><stop offset="0.31" stop-color="#3a9b20" stop-opacity="0.73"/><stop offset="0.41" stop-color="#3a9b20" stop-opacity="0.41"/><stop offset="0.54" stop-color="#3a9b20" stop-opacity="0"/></linearGradient><linearGradient id="linear-gradient-5" x1="425.92" y1="340.44" x2="609" y2="158.32" gradientUnits="userSpaceOnUse"><stop offset="0.2" stop-color="#3a9b20"/><stop offset="0.88" stop-color="#3a9b20" stop-opacity="0"/></linearGradient><linearGradient id="linear-gradient-6" x1="293.35" y1="422.02" x2="482.21" y2="501.03" gradientUnits="userSpaceOnUse"><stop offset="0.16" stop-color="#3a9b20"/><stop offset="0.4" stop-color="#3a9b20" stop-opacity="0"/></linearGradient><linearGradient id="linear-gradient-7" x1="391.91" y1="560.18" x2="550.9" y2="391.56" gradientUnits="userSpaceOnUse"><stop offset="0.36" stop-color="#3a9b20"/><stop offset="0.41" stop-color="#3a9b20" stop-opacity="0.95"/><stop offset="0.48" stop-color="#3a9b20" stop-opacity="0.81"/><stop offset="0.56" stop-color="#3a9b20" stop-opacity="0.59"/><stop offset="0.66" stop-color="#3a9b20" stop-opacity="0.28"/><stop offset="0.74" stop-color="#3a9b20" stop-opacity="0"/></linearGradient><linearGradient id="linear-gradient-8" x1="26.31" y1="282.18" x2="154.47" y2="239.79" gradientUnits="userSpaceOnUse"><stop offset="0.38" stop-color="#3a9b20"/><stop offset="0.46" stop-color="#3a9b20" stop-opacity="0.91"/><stop offset="0.62" stop-color="#3a9b20" stop-opacity="0.68"/><stop offset="0.83" stop-color="#3a9b20" stop-opacity="0.32"/><stop offset="1" stop-color="#3a9b20" stop-opacity="0"/></linearGradient><linearGradient id="linear-gradient-9" x1="234.13" y1="337.26" x2="378.67" y2="202.36" xlink:href="#linear-gradient-7"/></defs><title>New Proman Logo Vector</title><g class="cls-1"><g id="Layer_1" data-name="Layer 1"><path class="cls-2" d="M526,136.33a104.64,104.64,0,0,0-89.53,50.56A76.17,76.17,0,0,0,425.09,167v0a76.24,76.24,0,0,0-59.7-28.93H255.71v22.16a76.15,76.15,0,0,0-53.64-22.16H98.66V569.87H142V434.12l27.59,36.26,27.06,35.55,58.59-73.25.17,137.19h41.3l44.24-58.35h80v58.35h44.18V443.44l109.3,126.43h40.62V295.71A104.55,104.55,0,0,0,526,136.33ZM142,226.09V181.37h60.1a32.85,32.85,0,1,1,0,65.7H142Zm113.74,43.44v93.32L197.59,435.4,142,364.11V290.38h60.1a76.18,76.18,0,0,0,53.64-22.15ZM299,181.37h66.37a32.85,32.85,0,1,1,0,65.7H299Zm0,290.45V290.38h34l63.83,74.08L299,492.06ZM421,467.34H374.42L421,406Zm150.79-37.47v67.66L413.48,314.46v.07l-24.2-28a76.41,76.41,0,0,0,34.49-23.45,104.57,104.57,0,0,0,148,71.9ZM526,302a61.07,61.07,0,1,1,61.07-61.07A61.14,61.14,0,0,1,526,302Z"/><polygon class="cls-3" points="98.66 569.87 141.97 569.87 141.97 434.12 98.66 377.15 98.66 569.87"/><polygon class="cls-4" points="197.59 435.4 98.66 308.59 98.66 377.15 196.62 505.93 299.02 377.91 299.02 308.83 197.59 435.4"/><polygon class="cls-5" points="299.02 377.91 299.02 379.77 299.62 377.15 299.02 377.91"/><polygon class="cls-6" points="571.75 497.53 571.75 566.79 574.44 569.87 615.06 569.87 615.06 547.53 571.75 497.53"/><path class="cls-7" d="M526,136.33A104.56,104.56,0,1,0,630.55,240.89,104.56,104.56,0,0,0,526,136.33ZM526,302a61.07,61.07,0,1,1,61.07-61.07A61.14,61.14,0,0,1,526,302Z"/><g class="cls-8"><polygon class="cls-9" points="420.96 333.01 299.02 492.06 299.02 566.79 340.92 511.52 420.96 511.52 420.96 467.34 374.42 467.34 420.96 405.95 420.96 333.01"/></g><polygon class="cls-10" points="424.98 327.76 571.75 497.53 571.75 566.79 465.14 443.44 465.14 569.87 420.96 569.87 420.96 333.01 424.98 327.76"/><path class="cls-11" d="M202.07,138.06H98.66V308.59L142,364.11V290.38h60.1a76.18,76.18,0,0,0,53.64-22.15v-108A76.15,76.15,0,0,0,202.07,138.06Zm0,109H142v-65.7h60.1a32.85,32.85,0,1,1,0,65.7Z"/><path class="cls-12" d="M413.48,314.53l-24.2-28a76.48,76.48,0,0,0,34.45-23.4,122.43,122.43,0,0,1-2.29-22.23,104.1,104.1,0,0,1,15-54A76.3,76.3,0,0,0,425.09,167v0a76.24,76.24,0,0,0-59.7-28.93H255.71V362.85l43.31-54V290.38h34l63.83,74.08L425,327.76l-11.5-13.3Zm-48.09-67.46H299v-65.7h66.37a32.85,32.85,0,1,1,0,65.7Z"/></g></g></svg>